<svg width="174" height="40" viewBox="0 0 174 40" fill="none" xmlns="http://www.w3.org/2000/svg">
<path d="M78.3127 24.3235V19.085C78.3127 17.1083 77.0062 15.7777 74.9035 15.7602C74.3047 15.7229 73.7064 15.8412 73.1711 16.1029C72.6358 16.3645 72.183 16.76 71.8599 17.248C71.5655 16.7745 71.1442 16.3864 70.6404 16.1245C70.1366 15.8627 69.5689 15.7368 68.9972 15.7602C68.4994 15.737 68.0039 15.8395 67.5596 16.0575C67.1154 16.2756 66.7377 16.6016 66.4639 17.0035V15.9558H64.5784V24.3235H66.482V19.6891C66.482 18.2363 67.3144 17.468 68.6028 17.468C69.8911 17.468 70.4883 18.2538 70.4883 19.6717V24.3235H72.381V19.6891C72.381 18.2363 73.2496 17.468 74.5018 17.468C75.754 17.468 76.4054 18.2538 76.4054 19.6717V24.3235H78.3127ZM106.48 15.9628H103.4V13.4273H101.496V15.9628H99.7374V17.6252H101.496V21.4353C101.496 23.3771 102.274 24.533 104.504 24.533C105.336 24.5356 106.153 24.3117 106.86 23.887L106.317 22.3294C105.811 22.6201 105.237 22.7823 104.648 22.8008C103.708 22.8008 103.396 22.2421 103.396 21.4039V17.6252H106.476L106.48 15.9628ZM122.559 15.7533C122.099 15.7403 121.645 15.8474 121.243 16.0631C120.841 16.2789 120.507 16.5953 120.276 16.9791V15.9628H118.408V24.3235H120.294V19.6368C120.294 18.2398 120.909 17.4855 122.143 17.4855C122.547 17.4798 122.948 17.551 123.323 17.695L123.902 15.9803C123.471 15.8315 123.017 15.7548 122.559 15.7533ZM98.25 16.6263C97.1825 16.0143 95.9552 15.7113 94.7142 15.7533C92.521 15.7533 91.0951 16.7695 91.0951 18.4284C91.0951 19.7939 92.1447 20.6321 94.0845 20.894L94.9712 21.0162C96.0026 21.1559 96.4948 21.4179 96.4948 21.8893C96.4948 22.5354 95.8072 22.9056 94.5188 22.9056C93.4793 22.9375 92.4592 22.6298 91.6235 22.0325L90.7658 23.4469C91.8638 24.1878 93.1795 24.5685 94.5188 24.533C97.0195 24.533 98.4708 23.3945 98.4708 21.8055C98.4708 20.3352 97.3272 19.5669 95.4452 19.305L94.5586 19.1828C93.7443 19.078 93.0892 18.9208 93.0892 18.362C93.0892 17.7509 93.7045 17.3842 94.7395 17.3842C95.6879 17.3977 96.617 17.6441 97.4393 18.1001L98.25 16.6263ZM148.743 15.7533C148.283 15.7403 147.828 15.8474 147.426 16.0631C147.025 16.2789 146.69 16.5953 146.459 16.9791V15.9628H144.592V24.3235H146.477V19.6368C146.477 18.2398 147.093 17.4855 148.327 17.4855C148.731 17.4798 149.131 17.551 149.507 17.695L150.086 15.9803C149.655 15.8315 149.201 15.7548 148.743 15.7533ZM124.463 20.1431C124.463 22.6786 126.294 24.533 129.084 24.533C130.216 24.5871 131.327 24.2308 132.2 23.5342L131.296 22.0639C130.644 22.5429 129.849 22.8063 129.03 22.8148C127.525 22.8148 126.421 21.7461 126.421 20.1397C126.421 18.5332 127.528 17.482 129.03 17.4645C129.849 17.4731 130.644 17.7364 131.296 18.2154L132.2 16.7451C131.327 16.0485 130.216 15.6923 129.084 15.7463C126.294 15.7463 124.463 17.6007 124.463 20.1362V20.1431ZM142.117 20.1431V15.9523H140.231V16.9686C139.91 16.5683 139.493 16.2481 139.017 16.0348C138.541 15.8216 138.019 15.7214 137.495 15.7428C135.067 15.7428 133.152 17.5798 133.152 20.1327C133.152 22.6856 135.056 24.5226 137.495 24.5226C138.019 24.5439 138.541 24.4438 139.017 24.2305C139.493 24.0172 139.91 23.6971 140.231 23.2967V24.3095H142.117V20.1431ZM135.103 20.1431C135.103 18.6729 136.098 17.468 137.73 17.468C139.29 17.468 140.34 18.624 140.34 20.1431C140.34 21.6623 139.29 22.8183 137.73 22.8183C136.098 22.8183 135.103 21.6099 135.103 20.1431ZM112.353 15.7533C109.82 15.7533 108.04 17.5379 108.04 20.1431C108.04 22.8008 109.889 24.533 112.48 24.533C113.774 24.5768 115.039 24.159 116.034 23.3596L115.111 22.0116C114.391 22.5673 113.5 22.8746 112.578 22.8847C111.362 22.8847 110.258 22.3433 109.987 20.8381H116.421C116.439 20.6111 116.457 20.3841 116.457 20.1397C116.457 17.5344 114.771 15.7498 112.343 15.7498L112.353 15.7533ZM112.317 17.3807C113.533 17.3807 114.311 18.1141 114.51 19.4098H110.019C110.218 18.2014 110.978 17.3807 112.321 17.3807H112.317ZM159.6 20.1431V12.6031H157.715V16.9756C157.393 16.5753 156.977 16.2551 156.501 16.0418C156.025 15.8286 155.503 15.7284 154.979 15.7498C152.55 15.7498 150.636 17.5867 150.636 20.1397C150.636 22.6926 152.539 24.5296 154.979 24.5296C155.503 24.5509 156.025 24.4508 156.501 24.2375C156.977 24.0242 157.393 23.704 157.715 23.3037V24.3165H159.6V20.1431ZM161.804 23.5517C161.879 23.5514 161.953 23.5657 162.021 23.5936C162.087 23.6208 162.148 23.6599 162.199 23.7088C162.249 23.7568 162.29 23.8137 162.318 23.8765C162.347 23.9416 162.362 24.0117 162.362 24.0825C162.362 24.1534 162.347 24.2235 162.318 24.2886C162.29 24.3513 162.249 24.4082 162.199 24.4562C162.147 24.5049 162.087 24.544 162.021 24.5715C161.953 24.5997 161.879 24.6139 161.804 24.6134C161.694 24.6147 161.586 24.5846 161.493 24.5268C161.4 24.4691 161.327 24.3862 161.283 24.2886C161.254 24.2235 161.239 24.1534 161.239 24.0825C161.239 24.0117 161.254 23.9416 161.283 23.8765C161.34 23.7482 161.446 23.6466 161.58 23.5936C161.653 23.5642 161.732 23.5499 161.811 23.5517H161.804ZM161.804 24.4946C161.861 24.4955 161.918 24.4848 161.971 24.4632C162.02 24.4424 162.066 24.4128 162.105 24.3759C162.185 24.298 162.23 24.1925 162.23 24.0825C162.23 23.9726 162.185 23.8671 162.105 23.7892C162.066 23.7521 162.021 23.7225 161.971 23.7019C161.918 23.6805 161.861 23.6698 161.804 23.6704C161.746 23.6697 161.688 23.6804 161.634 23.7019C161.57 23.7285 161.513 23.7699 161.469 23.8225C161.424 23.8751 161.394 23.9373 161.381 24.0038C161.367 24.0702 161.371 24.1389 161.391 24.2037C161.411 24.2686 161.447 24.3277 161.497 24.3759C161.536 24.4133 161.583 24.4429 161.634 24.4632C161.69 24.4857 161.751 24.4964 161.811 24.4946H161.804ZM161.837 23.8311C161.891 23.8274 161.945 23.8422 161.989 23.873C162.007 23.8867 162.021 23.9043 162.03 23.9243C162.04 23.9444 162.044 23.9663 162.043 23.9882C162.044 24.0071 162.04 24.0259 162.033 24.0434C162.025 24.0609 162.014 24.0766 162 24.0895C161.966 24.118 161.924 24.1352 161.88 24.1384L162.047 24.3235H161.916L161.761 24.1384H161.71V24.3235H161.601V23.8346L161.837 23.8311ZM161.71 23.9219V24.0546H161.837C161.859 24.0609 161.883 24.0609 161.905 24.0546C161.914 24.0492 161.92 24.0419 161.925 24.0333C161.929 24.0248 161.931 24.0153 161.931 24.0057C161.931 23.9961 161.929 23.9866 161.925 23.9781C161.92 23.9695 161.914 23.9622 161.905 23.9568C161.883 23.9505 161.859 23.9505 161.837 23.9568L161.71 23.9219ZM152.594 20.1431C152.594 18.6729 153.589 17.468 155.221 17.468C156.781 17.468 157.83 18.624 157.83 20.1431C157.83 21.6623 156.781 22.8183 155.221 22.8183C153.589 22.8183 152.594 21.6099 152.594 20.1431ZM88.9346 20.1431V15.9523H87.049V16.9686C86.7275 16.5717 86.3126 16.2544 85.8387 16.0431C85.3648 15.8317 84.8455 15.7324 84.3239 15.7533C81.8955 15.7533 79.981 17.5902 79.981 20.1431C79.981 22.6961 81.8847 24.533 84.3239 24.533C84.8482 24.5544 85.3703 24.4543 85.8463 24.241C86.3223 24.0277 86.7384 23.7075 87.0599 23.3072V24.32H88.9454L88.9346 20.1431ZM81.9209 20.1431C81.9209 18.6729 82.9161 17.468 84.5483 17.468C86.1081 17.468 87.1576 18.624 87.1576 20.1431C87.1576 21.6623 86.1081 22.8183 84.5483 22.8183C82.9161 22.8183 81.9209 21.6134 81.9209 20.1431Z" fill="white"/>
<path d="M40.5191 10.2037H29.1191V29.974H40.5191V10.2037Z" fill="#FF5F00"/>
<path d="M29.8428 20.0947C29.8413 18.191 30.2885 16.3119 31.1506 14.5996C32.0127 12.8873 33.2672 11.3867 34.819 10.2113C32.897 8.75367 30.5888 7.84725 28.1582 7.59565C25.7276 7.34405 23.2726 7.75741 21.0739 8.78849C18.8753 9.81957 17.0215 11.4268 15.7246 13.4264C14.4277 15.426 13.74 17.7374 13.74 20.0964C13.74 22.4554 14.4277 24.7668 15.7246 26.7664C17.0215 28.7661 18.8753 30.3733 21.0739 31.4044C23.2726 32.4354 25.7276 32.8488 28.1582 32.5972C30.5888 32.3456 32.897 31.4392 34.819 29.9815C33.2667 28.8058 32.012 27.3046 31.1498 25.5917C30.2877 23.8788 29.8407 21.999 29.8428 20.0947Z" fill="#EB001B"/>
<path d="M55.8998 20.0941C55.8998 22.4533 55.2119 24.7648 53.9147 26.7645C52.6176 28.7642 50.7636 30.3714 48.5646 31.4023C46.3657 32.4333 43.9105 32.8464 41.4797 32.5944C39.049 32.3424 36.7407 31.4356 34.8188 29.9775C36.3701 28.8011 37.6242 27.3 38.4865 25.5877C39.3489 23.8753 39.797 21.9963 39.797 20.0924C39.797 18.1885 39.3489 16.3095 38.4865 14.5971C37.6242 12.8847 36.3701 11.3837 34.8188 10.2073C36.741 8.74899 39.0496 7.84209 41.4806 7.59026C43.9117 7.33842 46.3672 7.75182 48.5663 8.78318C50.7654 9.81454 52.6193 11.4222 53.9162 13.4225C55.213 15.4227 55.9004 17.7347 55.8998 20.0941Z" fill="#F79E1B"/>
<path d="M54.6476 27.8786V27.4735H54.8177V27.3931H54.3943V27.477H54.5644V27.8821L54.6476 27.8786ZM55.4836 27.8786V27.3896H55.3714L55.2194 27.7389L55.0674 27.3896H54.9335V27.8786H55.0095V27.5119L55.1507 27.8297H55.2484L55.3895 27.5119V27.8821L55.4836 27.8786Z" fill="#F79E1B"/>
</svg>
